<svg 
 xmlns="http://www.w3.org/2000/svg"
 xmlns:xlink="http://www.w3.org/1999/xlink"
 width="134px" height="50px">
<path fill-rule="evenodd"  fill="rgb(241, 172, 39)"
 d="M133.969,37.500 C133.969,39.519 132.517,41.199 130.594,41.575 L130.594,41.738 C132.517,42.115 133.969,43.801 133.969,45.828 C133.969,48.132 132.094,50.000 129.781,50.000 C127.765,50.000 126.083,48.579 125.685,46.687 L125.503,46.687 C125.105,48.579 123.423,50.000 121.406,50.000 C119.390,50.000 117.708,48.579 117.310,46.687 L117.128,46.687 C116.730,48.579 115.048,50.000 113.031,50.000 C111.014,50.000 109.333,48.579 108.935,46.687 L108.753,46.687 C108.357,48.579 106.681,50.000 104.672,50.000 C102.663,50.000 100.987,48.579 100.591,46.687 L100.409,46.687 C100.011,48.579 98.329,50.000 96.312,50.000 C94.296,50.000 92.614,48.579 92.216,46.687 L92.034,46.687 C91.634,48.579 89.946,50.000 87.922,50.000 C85.898,50.000 84.209,48.579 83.810,46.687 L83.628,46.687 C83.232,48.579 81.556,50.000 79.547,50.000 C77.538,50.000 75.862,48.579 75.465,46.687 L75.284,46.687 C74.886,48.579 73.204,50.000 71.187,50.000 C69.171,50.000 67.489,48.579 67.091,46.687 L66.909,46.687 C66.511,48.579 64.829,50.000 62.812,50.000 C60.796,50.000 59.114,48.579 58.716,46.687 L58.534,46.687 C58.138,48.579 56.462,50.000 54.453,50.000 C52.444,50.000 50.768,48.579 50.372,46.687 L50.190,46.687 C49.791,48.579 48.102,50.000 46.078,50.000 C44.054,50.000 42.366,48.579 41.966,46.687 L41.784,46.687 C41.386,48.579 39.704,50.000 37.687,50.000 C35.671,50.000 33.989,48.579 33.591,46.687 L33.409,46.687 C33.013,48.579 31.337,50.000 29.328,50.000 C27.319,50.000 25.643,48.579 25.247,46.687 L25.065,46.687 C24.667,48.579 22.985,50.000 20.969,50.000 C18.952,50.000 17.270,48.579 16.872,46.687 L16.690,46.687 C16.292,48.579 14.610,50.000 12.594,50.000 C10.577,50.000 8.895,48.579 8.497,46.687 L8.315,46.687 C7.917,48.579 6.235,50.000 4.219,50.000 C1.906,50.000 0.031,48.132 0.031,45.828 C0.031,43.801 1.483,42.115 3.406,41.738 L3.406,41.575 C1.483,41.199 0.031,39.519 0.031,37.500 C0.031,35.481 1.483,33.801 3.406,33.425 L3.406,33.262 C1.483,32.885 0.031,31.198 0.031,29.172 C0.031,27.145 1.483,25.459 3.406,25.081 L3.406,24.918 C1.483,24.541 0.031,22.855 0.031,20.828 C0.031,18.801 1.483,17.115 3.406,16.738 L3.406,16.575 C1.483,16.199 0.031,14.519 0.031,12.500 C0.031,10.481 1.483,8.801 3.406,8.425 L3.406,8.262 C1.483,7.885 0.031,6.199 0.031,4.172 C0.031,1.868 1.906,-0.000 4.219,-0.000 C6.235,-0.000 7.917,1.421 8.315,3.312 L8.497,3.312 C8.895,1.421 10.577,-0.000 12.594,-0.000 C14.610,-0.000 16.292,1.421 16.690,3.312 L16.872,3.312 C17.270,1.421 18.952,-0.000 20.969,-0.000 C22.985,-0.000 24.667,1.421 25.065,3.312 L25.247,3.312 C25.643,1.421 27.319,-0.000 29.328,-0.000 C31.337,-0.000 33.013,1.421 33.409,3.312 L33.591,3.312 C33.989,1.421 35.671,-0.000 37.687,-0.000 C39.704,-0.000 41.386,1.421 41.784,3.312 L41.966,3.312 C42.366,1.421 44.054,-0.000 46.078,-0.000 C48.102,-0.000 49.791,1.421 50.190,3.312 L50.372,3.312 C50.768,1.421 52.444,-0.000 54.453,-0.000 C56.462,-0.000 58.138,1.421 58.534,3.312 L58.716,3.312 C59.114,1.421 60.796,-0.000 62.812,-0.000 C64.829,-0.000 66.511,1.421 66.909,3.312 L67.091,3.312 C67.489,1.421 69.171,-0.000 71.187,-0.000 C73.204,-0.000 74.886,1.421 75.284,3.312 L75.465,3.312 C75.862,1.421 77.538,-0.000 79.547,-0.000 C81.556,-0.000 83.232,1.421 83.628,3.312 L83.810,3.312 C84.209,1.421 85.898,-0.000 87.922,-0.000 C89.946,-0.000 91.634,1.421 92.034,3.312 L92.216,3.312 C92.614,1.421 94.296,-0.000 96.312,-0.000 C98.329,-0.000 100.011,1.421 100.409,3.312 L100.590,3.312 C100.987,1.421 102.663,-0.000 104.672,-0.000 C106.681,-0.000 108.357,1.421 108.753,3.312 L108.935,3.312 C109.333,1.421 111.014,-0.000 113.031,-0.000 C115.048,-0.000 116.730,1.421 117.128,3.312 L117.310,3.312 C117.708,1.421 119.389,-0.000 121.406,-0.000 C123.423,-0.000 125.105,1.421 125.503,3.312 L125.685,3.312 C126.082,1.421 127.764,-0.000 129.781,-0.000 C132.094,-0.000 133.969,1.868 133.969,4.172 C133.969,6.199 132.517,7.885 130.594,8.262 L130.594,8.425 C132.517,8.801 133.969,10.481 133.969,12.500 C133.969,14.519 132.517,16.199 130.594,16.575 L130.594,16.738 C132.517,17.115 133.969,18.801 133.969,20.828 C133.969,22.855 132.517,24.541 130.594,24.918 L130.594,25.081 C132.517,25.459 133.969,27.145 133.969,29.172 C133.969,31.198 132.517,32.885 130.594,33.262 L130.594,33.425 C132.517,33.801 133.969,35.481 133.969,37.500 Z"/>
</svg>